<svg xmlns="http://www.w3.org/2000/svg" xmlns:xlink="http://www.w3.org/1999/xlink" version="1.1" width="256" height="256" viewBox="0 0 256 256" xml:space="preserve">

<defs>
</defs>
<g style="stroke: none; stroke-width: 0; stroke-dasharray: none; stroke-linecap: butt; stroke-linejoin: miter; stroke-miterlimit: 10; fill: rgb(224,194,145); fill-rule: nonzero; opacity: 1;" transform="translate(0 -2.842170943040401e-14) scale(2.81 2.81)" >
	<circle cx="45" cy="45" r="45" style="stroke: none; stroke-width: 1; stroke-dasharray: none; stroke-linecap: butt; stroke-linejoin: miter; stroke-miterlimit: 10; fill: rgb(224,194,145); fill-rule: nonzero; opacity: 1;" transform="  matrix(1 0 0 1 0 0) "/>
</g>
<g style="stroke: none; stroke-width: 0; stroke-dasharray: none; stroke-linecap: butt; stroke-linejoin: miter; stroke-miterlimit: 10; fill: none; fill-rule: nonzero; opacity: 1;" transform="translate(94.91421680367844 3.9809247436258204) rotate(30) scale(2.02 2.02)" >
	<path d="M 74.553 56.366 c 6.22 6.592 6.22 17.281 0 23.873 v 0 c -6.22 6.592 -16.304 6.592 -22.524 0 l 0 0 c -3.882 -4.114 -10.175 -4.114 -14.057 0 l 0 0 c -6.22 6.592 -16.304 6.592 -22.524 0 v 0 c -6.22 -6.592 -6.22 -17.281 0 -23.873 l 9.466 -10.729 c 10.869 -12.319 29.304 -12.319 40.173 0 L 74.553 56.366 z" style="stroke: none; stroke-width: 1; stroke-dasharray: none; stroke-linecap: butt; stroke-linejoin: miter; stroke-miterlimit: 10; fill: rgb(255,199,36); fill-rule: nonzero; opacity: 1;" transform=" matrix(1 0 0 1 0 0) " stroke-linecap="round" />
	<path d="M 41.496 15.453 c 1.463 6.884 -1.989 11.222 -7.152 12.32 c -5.163 1.097 -10.082 -1.461 -11.545 -8.345 s 1.536 -13.355 6.699 -14.452 S 40.032 8.569 41.496 15.453 z" style="stroke: none; stroke-width: 1; stroke-dasharray: none; stroke-linecap: butt; stroke-linejoin: miter; stroke-miterlimit: 10; fill: rgb(255,199,36); fill-rule: nonzero; opacity: 1;" transform=" matrix(1 0 0 1 0 0) " stroke-linecap="round" />
	<path d="M 67.202 19.427 c -1.463 6.884 -6.382 9.443 -11.545 8.345 c -5.163 -1.097 -8.616 -5.436 -7.152 -12.32 S 55.34 3.878 60.503 4.975 S 68.665 12.543 67.202 19.427 z" style="stroke: none; stroke-width: 1; stroke-dasharray: none; stroke-linecap: butt; stroke-linejoin: miter; stroke-miterlimit: 10; fill: rgb(255,199,36); fill-rule: nonzero; opacity: 1;" transform=" matrix(1 0 0 1 0 0) " stroke-linecap="round" />
	<path d="M 87.471 37.991 c -2.974 6.379 -8.342 7.765 -13.126 5.535 c -4.784 -2.231 -7.172 -7.234 -4.198 -13.613 c 2.974 -6.379 9.264 -9.741 14.048 -7.51 C 88.979 24.633 90.446 31.612 87.471 37.991 z" style="stroke: none; stroke-width: 1; stroke-dasharray: none; stroke-linecap: butt; stroke-linejoin: miter; stroke-miterlimit: 10; fill: rgb(255,199,36); fill-rule: nonzero; opacity: 1;" transform=" matrix(1 0 0 1 0 0) " stroke-linecap="round" />
	<path d="M 19.853 29.912 c 2.974 6.379 0.586 11.382 -4.198 13.613 c -4.784 2.231 -10.152 0.844 -13.126 -5.535 S 1.021 24.633 5.805 22.402 S 16.879 23.534 19.853 29.912 z" style="stroke: none; stroke-width: 1; stroke-dasharray: none; stroke-linecap: butt; stroke-linejoin: miter; stroke-miterlimit: 10; fill: rgb(255,199,36); fill-rule: nonzero; opacity: 1;" transform=" matrix(1 0 0 1 0 0) " stroke-linecap="round" />
	<path d="M 63.291 86.184 c -4.532 0 -8.79 -1.868 -11.99 -5.258 c -1.686 -1.788 -3.923 -2.772 -6.3 -2.772 h 0 c -2.377 0 -4.614 0.985 -6.301 2.772 c -3.199 3.39 -7.457 5.258 -11.989 5.258 c -4.533 0 -8.791 -1.868 -11.991 -5.258 c -6.566 -6.962 -6.566 -18.287 0 -25.247 l 9.444 -10.704 c 5.45 -6.177 12.85 -9.578 20.837 -9.578 c 0 0 0 0 0 0 c 7.988 0 15.387 3.402 20.836 9.578 l 9.455 10.716 c 6.554 6.961 6.55 18.278 -0.012 25.234 C 72.081 84.317 67.823 86.184 63.291 86.184 z M 45 76.154 C 45.001 76.154 45.001 76.154 45 76.154 c 2.934 0 5.688 1.207 7.756 3.399 c 2.817 2.986 6.558 4.631 10.535 4.631 s 7.718 -1.645 10.535 -4.631 c 5.852 -6.204 5.852 -16.298 0 -22.5 l -0.022 -0.025 l -9.466 -10.729 c -5.064 -5.739 -11.931 -8.901 -19.336 -8.901 s -14.273 3.161 -19.337 8.901 l -9.466 10.729 c -5.875 6.228 -5.875 16.322 -0.022 22.526 c 2.818 2.986 6.559 4.631 10.535 4.631 s 7.717 -1.645 10.534 -4.631 C 39.312 77.361 42.067 76.154 45 76.154 z" style="stroke: none; stroke-width: 1; stroke-dasharray: none; stroke-linecap: butt; stroke-linejoin: miter; stroke-miterlimit: 10; fill: rgb(159,133,57); fill-rule: nonzero; opacity: 1;" transform=" matrix(1 0 0 1 0 0) " stroke-linecap="round" />
	<path d="M 32.017 29.027 c -5.059 0 -8.939 -3.475 -10.197 -9.391 c -1.576 -7.413 1.775 -14.428 7.47 -15.638 c 5.696 -1.218 11.609 3.835 13.184 11.248 l 0 0 c 0.746 3.507 0.322 6.645 -1.225 9.075 c -1.428 2.243 -3.807 3.816 -6.697 4.431 C 33.68 28.936 32.833 29.027 32.017 29.027 z M 31.02 5.816 c -0.439 0 -0.877 0.045 -1.315 0.138 c -4.615 0.981 -7.275 6.932 -5.929 13.266 c 1.227 5.769 5.198 8.672 10.359 7.575 c 2.396 -0.509 4.272 -1.736 5.425 -3.549 c 1.26 -1.979 1.591 -4.602 0.957 -7.585 l 0 0 C 39.299 9.927 35.208 5.816 31.02 5.816 z" style="stroke: none; stroke-width: 1; stroke-dasharray: none; stroke-linecap: butt; stroke-linejoin: miter; stroke-miterlimit: 10; fill: rgb(159,133,57); fill-rule: nonzero; opacity: 1;" transform=" matrix(1 0 0 1 0 0) " stroke-linecap="round" />
	<path d="M 57.984 29.027 c -0.817 0 -1.663 -0.09 -2.535 -0.276 c -6.273 -1.333 -9.383 -6.635 -7.923 -13.506 C 49.102 7.832 55.017 2.78 60.711 3.997 c 5.694 1.21 9.045 8.226 7.47 15.638 l 0 0 C 66.922 25.551 63.042 29.027 57.984 29.027 z M 58.98 5.816 c -4.188 0 -8.278 4.111 -9.496 9.845 c -1.227 5.77 1.219 10.036 6.381 11.133 c 5.162 1.098 9.131 -1.806 10.358 -7.575 c 1.347 -6.334 -1.313 -12.285 -5.928 -13.266 C 59.858 5.861 59.418 5.816 58.98 5.816 z" style="stroke: none; stroke-width: 1; stroke-dasharray: none; stroke-linecap: butt; stroke-linejoin: miter; stroke-miterlimit: 10; fill: rgb(159,133,57); fill-rule: nonzero; opacity: 1;" transform=" matrix(1 0 0 1 0 0) " stroke-linecap="round" />
	<path d="M 78.635 45.539 c -1.525 0 -3.113 -0.361 -4.713 -1.107 c -2.678 -1.249 -4.642 -3.317 -5.529 -5.824 c -0.961 -2.716 -0.667 -5.87 0.848 -9.118 c 3.203 -6.867 10.1 -10.455 15.377 -7.994 c 5.276 2.46 6.963 10.05 3.76 16.918 v 0 C 86.226 43.028 82.653 45.539 78.635 45.539 z M 81.021 22.71 c -3.725 0 -7.788 2.951 -9.967 7.625 c -1.289 2.764 -1.557 5.394 -0.775 7.606 c 0.716 2.025 2.268 3.643 4.488 4.678 c 4.782 2.231 9.304 0.294 11.797 -5.051 v 0 c 2.737 -5.869 1.484 -12.265 -2.793 -14.259 C 82.902 22.903 81.973 22.71 81.021 22.71 z" style="stroke: none; stroke-width: 1; stroke-dasharray: none; stroke-linecap: butt; stroke-linejoin: miter; stroke-miterlimit: 10; fill: rgb(159,133,57); fill-rule: nonzero; opacity: 1;" transform=" matrix(1 0 0 1 0 0) " stroke-linecap="round" />
	<path d="M 11.365 45.539 c -4.018 0.001 -7.591 -2.51 -9.743 -7.126 c -3.202 -6.868 -1.516 -14.457 3.76 -16.918 c 5.277 -2.459 12.175 1.126 15.377 7.995 c 1.515 3.249 1.808 6.401 0.847 9.118 c -0.887 2.507 -2.85 4.575 -5.529 5.824 C 14.479 45.177 12.89 45.539 11.365 45.539 z M 8.979 22.71 c -0.952 0 -1.881 0.192 -2.752 0.598 C 1.952 25.303 0.699 31.7 3.435 37.568 c 2.493 5.347 7.013 7.282 11.798 5.051 c 2.219 -1.035 3.771 -2.652 4.488 -4.678 c 0.782 -2.212 0.515 -4.841 -0.774 -7.605 v 0 C 16.767 25.661 12.704 22.71 8.979 22.71 z" style="stroke: none; stroke-width: 1; stroke-dasharray: none; stroke-linecap: butt; stroke-linejoin: miter; stroke-miterlimit: 10; fill: rgb(159,133,57); fill-rule: nonzero; opacity: 1;" transform=" matrix(1 0 0 1 0 0) " stroke-linecap="round" />
</g>
</svg>