<svg xmlns="http://www.w3.org/2000/svg" xmlns:xlink="http://www.w3.org/1999/xlink" version="1.1" width="256" height="256" viewBox="0 0 256 256" xml:space="preserve">

<defs>
</defs>
<g style="stroke: none; stroke-width: 0; stroke-dasharray: none; stroke-linecap: butt; stroke-linejoin: miter; stroke-miterlimit: 10; fill: none; fill-rule: nonzero; opacity: 1;" transform="translate(1.4065934065934016 1.4065934065934016) scale(2.81 2.81)" >
	<path d="M 86.964 14.628 h -3.905 c -0.978 0 -1.911 -0.409 -2.574 -1.127 l -2.928 -3.172 c -2.438 -2.641 -6.034 -3.888 -9.583 -3.327 c -0.002 -1.84 0.059 -3.877 0.164 -6.057 c 0.036 -0.743 -0.91 -1.106 -1.369 -0.521 c -2.118 2.699 -3.792 5.608 -4.927 8.77 c -5.49 3.053 -8.465 8.397 -8.686 14.382 c 0 17.814 -19.527 20.212 -28.776 29.633 c -6.947 7.191 -9.812 22.701 -6.756 31.054 l -0.008 -0.006 c -5.859 1.007 -12.477 -5.364 -16.173 -11.811 C 0.997 71.667 -0.174 72.123 0.022 73 c 2.617 11.742 10.443 16.865 24.359 16.865 h 51.557 v -5.52 c 0 -1.397 -1.133 -2.53 -2.545 -2.53 h -0.071 c -1.859 0 -3.451 -1.33 -3.78 -3.16 c -1.354 -7.542 -2.577 -15.975 0.573 -25.274 c 3.353 -6.868 4.656 -12.158 2.741 -19.184 c -1.029 -3.202 2.657 -6.426 5.826 -7.096 l 7.849 -1.017 c 1.342 -0.174 2.407 -1.215 2.611 -2.553 l 0.825 -5.41 C 90.245 16.284 88.823 14.628 86.964 14.628 z" style="stroke: none; stroke-width: 1; stroke-dasharray: none; stroke-linecap: butt; stroke-linejoin: miter; stroke-miterlimit: 10; fill: rgb(42,39,39); fill-rule: nonzero; opacity: 1;" transform=" matrix(1 0 0 1 0 0) " stroke-linecap="round" />
</g>
</svg>